<?xml version="1.0" encoding="UTF-8" standalone="no"?>
<svg id="svg40" enable-background="new -70.2 -134.307 644.4 644.868" height="500" viewBox="-70.2 -134.307 499.99998 500.00001" width="500" xmlns="http://www.w3.org/2000/svg">
   <rect id="rect853" fill="#fc3" height="500" width="500" x="-70.199997" y="-134.30701"/>
   <g id="g38" transform="matrix(2.1643145 0 0 2.1627403 -15.716546 -29.781374)">
      <path id="path4" d="m147.626 57.08c.28.111.528.27.73.475.21.2.361.429.482.669.156.326.229.661.229 1.017 0 .413-.102.809-.305 1.181-.197.356-.485.653-.849.866-.377.197-.749.294-1.153.294-.402 0-.768-.097-1.142-.294-.361-.213-.652-.51-.854-.866-.208-.372-.307-.768-.307-1.181 0-.345.062-.658.2-.952.126-.272.304-.526.496-.715.202-.202.42-.345.662-.461.305-.14.622-.2.946-.2.291 0 .577.046.865.167zm1.627 1.025c-.121-.278-.299-.537-.53-.774-.227-.243-.52-.44-.862-.601-.323-.154-.695-.232-1.099-.232-.418 0-.813.094-1.188.283-.275.13-.525.305-.754.526-.229.235-.418.521-.577.841-.142.348-.213.709-.213 1.092 0 .483.121.936.359 1.378.248.434.579.777 1.013 1.008.439.245.881.37 1.36.37.42 0 .814-.097 1.202-.272.28-.146.544-.337.778-.585.237-.243.426-.526.558-.868.126-.323.207-.674.207-1.03 0-.384-.089-.758-.254-1.136zm-2.586 1.529c.172 0 .305.032.398.07.1.04.154.113.194.197.049.075.068.213.068.388.021.264.033.418.059.467h.647c-.019-.092-.043-.216-.051-.402 0-.183-.019-.305-.027-.388-.032-.121-.059-.224-.121-.297-.062-.081-.121-.148-.207-.197-.089-.049-.2-.081-.342-.119.17-.022.264-.038.342-.067.118-.073.221-.162.293-.275.07-.116.113-.251.113-.404 0-.156-.043-.297-.111-.407-.07-.124-.162-.216-.267-.288-.108-.07-.251-.119-.423-.156-.116-.022-.299-.03-.531-.03h-1.091v3.031h.671v-1.122h.386zm.361-1.391c.1.024.183.075.24.148.059.081.086.17.086.267 0 .103-.027.181-.073.272-.051.073-.134.132-.229.17-.102.043-.213.059-.312.059h-.458v-.96h.458c.081 0 .175 0 .288.044z" fill="#7a0019"/>
      <path id="path6" d="m27.485 115.727h11.616v3.276h-7.904v4.714h7.187v3.325h-7.187v6.793h-3.712z"/>
      <path id="path8" d="m48.258 115.569h.318l8.252 18.262h-3.901l-1.008-2.446h-7.004l-1.008 2.446h-3.58zm2.336 12.702l-1.142-2.748c-.504-1.195-1.035-3.033-1.086-3.217-.027.081-.558 1.971-1.062 3.217l-1.142 2.748z"/>
      <path id="path10" d="m60.49 133.835h3.712v-18.105h-3.712z"/>
      <path id="path12" d="m69.167 115.727h6.683c3.688 0 6.713 1.734 6.713 5.968 0 2.74-1.436 4.468-3.529 5.296l4.111 6.844h-4.243l-3.661-6.283h-2.362v6.283h-3.712zm6.579 8.684c1.829 0 2.998-.723 2.998-2.715 0-2.025-1.22-2.692-2.998-2.692h-2.866v5.407z"/>
      <path id="path14" d="m84.873 115.727h3.979l3.103 6.979c.639 1.464 1.328 3.862 1.406 4.096.027-.13.69-2.556 1.379-4.096l3.025-6.979h3.607l-7.907 18.264h-.369z"/>
      <path id="path16" d="m105.039 133.835h3.712v-18.105h-3.712z"/>
      <path id="path18" d="m113.714 115.727h11.936v3.276h-8.224v4.156h7.241v3.19h-7.241v4.21h8.596v3.276h-12.308z"/>
      <path id="path20" d="m128.917 115.727h3.925l2.626 7.267c.426 1.203.903 3.093.956 3.276.025-.108.528-2.073 1.113-3.276l3.475-7.426h.372l3.526 7.426c.561 1.176 1.064 3.093 1.115 3.276.027-.108.504-2.049.956-3.276l2.597-7.267h3.61l-6.552 18.264h-.371l-4.06-8.732c-.45-.957-.954-2.503-1.008-2.661-.027.078-.584 1.677-1.035 2.661l-4.219 8.732h-.369z"/>
      <path id="path22" d="m .71 72.381h7.047v14.551h14.644v-14.551h7.047v34.353h-7.047v-13.49h-14.643v13.489h-7.048z"/>
      <path id="path24" d="m36.244 72.381h22.645v6.216h-15.6v7.883h13.742v6.062h-13.742v7.982h16.306v6.21h-23.351z"/>
      <path id="path26" d="m78.556 72.078h.603l15.655 34.657h-7.403l-1.91-4.649h-13.286l-1.915 4.649h-6.794zm4.427 24.1l-2.161-5.207c-.956-2.273-1.964-5.757-2.063-6.111-.054.151-1.061 3.737-2.018 6.111l-2.163 5.207z"/>
      <path id="path28" d="m99.032 72.381h7.048v28.143h15.503v6.21h-22.551z"/>
      <path id="path30" d="m129.954 78.596h-9.763v-6.213h26.578v6.213h-9.769v28.14h-7.047v-28.14z"/>
      <path id="path32" d="m151.224 72.381h7.048v14.551h14.647v-14.551h7.045v34.353h-7.045v-13.49h-14.647v13.489h-7.048z"/>
      <path id="path36" d="m135.353 46.312l-18.043-30.086h4.978v-15.689h-30.029v15.689h4.97l-6.886 11.49-6.891-11.49h4.97v-15.689h-30.031v15.689h4.957l-18.039 30.086h-6.414v15.684h30.614v-15.684h-5.506l9.396-15.678 3.648 6.076h-3.491v15.684h33.558v-15.684h-3.489l3.637-6.076 9.402 15.678h-5.493v15.684h30.605v-15.684z" fill="#7a0019"/>
   </g>
</svg>
